Coordinates
version=1
nRows=13
nColumns=36
inDegrees=yes

Units are S.I. units (second, meters, Newtons, ...)
If the header above contains a line with 'inDegrees', this indicates whether rotational values are in degrees (yes) or radians (no).

endheader
time	pelvis_tilt	pelvis_list	pelvis_rotation	pelvis_tx	pelvis_ty	pelvis_tz	hip_flexion_r	hip_adduction_r	hip_rotation_r	knee_angle_r	knee_angle_r_beta	ankle_angle_r	subtalar_angle_r	mtp_angle_r	hip_flexion_l	hip_adduction_l	hip_rotation_l	knee_angle_l	knee_angle_l_beta	ankle_angle_l	subtalar_angle_l	mtp_angle_l	lumbar_extension	lumbar_bending	lumbar_rotation	arm_flex_r	arm_add_r	arm_rot_r	elbow_flex_r	pro_sup_r	arm_flex_l	arm_add_l	arm_rot_l	elbow_flex_l	pro_sup_l
     21.01666670	    -35.52187498	     -5.32186174	     -1.44048269	      0.81075171	      0.78741205	      0.06595409	     76.95655478	      5.43617696	      0.15448577	     42.04527067	      0.73382841	     -6.08178401	    -34.28125675	     -7.49999987	     78.39541987	      1.88180166	      6.77940845	     44.39997567	      0.77492576	      9.28144899	    -34.21194803	     -7.49999987	     38.01092781	     -6.88960731	    -13.77303594	     33.47643923	     19.80205976	     81.05069022	    116.12111559	    109.49421245	     17.47425714	      5.74284361	     52.48923791	    129.21181768	    107.85202592
     21.03333330	    -36.37862874	     -5.33167512	     -1.23435979	      0.81417223	      0.78880355	      0.06754716	     77.69505479	      5.48548036	      0.60642613	     41.58313516	      0.72576262	     -7.08040360	    -34.27599412	     -7.49999987	     79.04613703	      2.06648919	      7.03976881	     44.00452403	      0.76802383	      9.38290108	    -34.19585770	     -7.49999987	     39.32303490	     -7.28639570	    -13.48297073	     33.07091597	     19.63791361	     80.44741737	    116.24018460	    109.50787628	     16.33225816	      6.01429955	     49.05543781	    129.19075580	    107.58214813
     21.05000000	    -36.86826000	     -5.17677975	     -1.09086372	      0.81590550	      0.78683896	      0.06753938	     78.17083840	      5.37583448	      0.95037213	     41.55750632	      0.72531531	     -7.70700362	    -34.26287182	     -7.49999987	     79.35977799	      2.30233367	      7.23351435	     44.01401210	      0.76818943	      9.75449233	    -34.16576477	     -7.49999987	     40.32297847	     -7.32791428	    -13.16473916	     32.76089549	     19.52694052	     80.27765383	    116.45096178	    109.60610168	     15.20454332	      6.59443698	     45.21619828	    128.40711825	    107.21637997
     21.06666670	    -37.07204185	     -5.18438972	     -1.10692370	      0.81701570	      0.78501329	      0.06841473	     78.45941319	      5.42441540	      0.83466609	     42.07676128	      0.73437802	     -8.14981586	    -34.26584367	     -7.49999987	     79.71497547	      2.31389777	      7.51631544	     44.70526330	      0.78025404	      9.71971927	    -34.16262820	     -7.49999987	     40.91270947	     -7.07051284	    -13.14746196	     32.60948572	     19.51868398	     80.41723276	    117.27173565	    109.76604948	     14.95160006	      7.30462360	     43.75995746	    127.90073316	    107.12111177
     21.08333330	    -38.87273388	     -5.30219462	     -1.25918672	      0.81296616	      0.78457229	      0.06997442	     79.98042860	      5.55375167	      0.68675502	     41.20232372	      0.71911621	     -8.23015710	    -34.29871722	     -7.49999987	     81.47117240	      2.16731440	      7.42469809	     44.52252073	      0.77706458	      9.52804117	    -34.14560349	     -7.49999987	     43.63607153	     -6.31332351	    -14.46982443	     32.52780946	     19.97364776	     82.08987056	    116.91738767	     98.84176322	     13.16457946	      8.00420913	     39.66749864	    128.51483452	     96.38547761
     21.10000000	    -38.60938152	     -5.15469153	     -0.99894852	      0.82048626	      0.78240775	      0.06979838	     79.79820480	      5.40307484	      0.80474389	     41.87456336	      0.73084900	     -7.51203372	    -34.29115421	     -7.49999987	     81.19027579	      2.37036350	      7.34657222	     44.79809974	      0.78187434	      9.36754842	    -34.17878818	     -7.49999987	     43.16303027	     -6.56026585	    -13.29027953	     32.07610761	     19.67424214	     81.45708677	    118.42887187	    109.91257242	     13.49806592	      8.24610530	     39.18804535	    127.13184835	    106.87657371
     21.11666670	    -39.52647127	     -5.32532883	     -1.20090199	      0.81268316	      0.78065967	      0.07144239	     80.53085011	      5.64955054	      0.54242489	     41.39707772	      0.72251531	     -7.34825633	    -34.30903080	     -7.49999987	     82.19294380	      2.09650628	      7.25399743	     45.08667193	      0.78691087	      9.31434722	    -34.17539920	     -7.49999987	     43.76952723	     -5.72578188	    -13.33737610	     32.26368495	     19.88987715	     81.95528059	    119.03991568	    109.66721137	     13.47121434	      8.79618324	     38.65961326	    127.47028336	    107.01871738
     21.13333330	    -39.84406796	     -5.54593889	     -1.42822655	      0.81756664	      0.78233623	      0.07228557	     80.54650044	      6.07739821	      0.60794938	     40.85224772	      0.71300623	     -7.34039658	    -34.32453382	     -7.49999987	     82.36664032	      1.69663583	      7.19285560	     45.37048934	      0.79186442	      8.95518782	    -34.17113007	     -7.49999987	     44.25402048	     -5.02367168	    -13.28190541	     32.15329594	     19.92873524	     82.46276243	    119.70960087	    109.97050611	     13.69491869	      9.56318626	     41.38403211	    127.62520202	    107.05595125
     21.15000000	    -40.91007263	     -5.99977423	     -1.51877126	      0.81570778	      0.78157211	      0.07346458	     81.05788159	      6.31373824	      0.00611578	     39.77648750	      0.69423067	     -7.54518456	    -34.35153139	     -7.49999987	     83.27553603	      1.39960092	      7.27563632	     45.09358952	      0.78703161	      8.69009561	    -34.17880381	     -7.49999987	     45.20923481	     -4.11343554	    -13.25459739	     32.02941793	     19.85706461	     82.68231564	    119.76749481	    109.75736837	     13.30988493	      9.92327185	     40.37936774	    127.88015503	    107.52778812
     21.16666670	    -40.99396413	     -6.15008964	     -1.40241723	      0.81762092	      0.78141406	      0.07414616	     80.65301399	      6.43381394	     -0.01497544	     39.27459163	      0.68547094	     -7.07077321	    -34.34433379	     -7.49999987	     83.11963604	      1.36528757	      7.29492120	     44.83883331	      0.78258527	      8.80192409	    -34.15122874	     -7.49999987	     45.39099646	     -3.85325643	    -13.50819243	     31.71073305	     19.85359709	     83.16641886	    120.16729987	    109.72182236	     13.76928185	     10.38637065	     42.61404925	    127.79124515	    107.76151096
     21.18333330	    -41.42057120	     -5.81172724	     -1.09845733	      0.81710946	      0.78212666	      0.07535511	     81.11554112	      6.13667791	      0.32640247	     39.53140768	      0.68995322	     -6.45580347	    -34.34332024	     -7.49999987	     83.07999635	      1.67421696	      6.95204632	     44.19908682	      0.77141959	      9.11066980	    -34.15636042	     -7.49999987	     45.68201991	     -4.28152982	    -13.22656628	     31.45261980	     19.98884779	     83.25581530	    120.35348491	    109.89561462	     13.79702564	     10.54655682	     44.06067385	    128.40943518	    107.70307893
     21.20000000	    -41.03383386	     -5.97297748	     -0.98074742	      0.80843202	      0.77495226	      0.07629814	     81.21194736	      6.32363518	      0.48063141	     39.73201732	      0.69345452	     -6.10179442	    -34.33056022	     -7.49999987	     83.51190902	      1.48421396	      6.63278626	     44.68137452	      0.77983710	      8.77505435	    -34.19550770	     -7.49999987	     44.51452545	     -3.91891792	    -13.09008473	     32.35060797	     19.90696253	     81.81491215	    119.57197566	    109.78895933	     14.80157668	     10.41262926	     38.89450596	    128.08798989	    107.48677304
     21.21666670	    -41.14503539	     -5.51745907	     -0.24680353	      0.81856143	      0.78096898	      0.07534635	     81.61349050	      5.63673691	      0.86888365	     40.63767870	      0.70926129	     -4.94920568	    -34.32892064	     -7.49999987	     83.35022260	      2.44148593	      6.55209342	     44.35533644	      0.77414666	      8.17142531	    -34.19601463	     -7.49999987	     44.93068287	     -4.58288782	    -12.81556515	     31.72944892	     19.55177101	     81.68168724	    119.00007691	    109.40920496	     14.30543085	     10.62111903	     35.88672072	    127.94992463	    106.38454202
